<svg width="53" height="56" fill="none" xmlns="http://www.w3.org/2000/svg"><path d="M19.298 32.062c-.172-.022-1.345-2.398-1.345-2.398l-2.328-1.792-1.247 1.248-1.12 1.063a9.36 9.36 0 00-.858.977l-.129 2.283 3.094 1.46s4.105-2.818 3.933-2.84z" fill="#FFE0D1"/><path d="M23.99 23.067l-1.656-1.385a1.815 1.815 0 00-2.62.296c-.645.835-.517 2.055.285 2.726l1.657 1.386 1.174.955 2.677-2.637-1.516-1.34z" fill="#FABC91"/><path d="M15.528 30.89c.263-.353.55-.69.863-1.006l.844-.821-1.515-1.191-1.282 1.31-1.152 1.117c-.32.322-.614.665-.883 1.026l-.132 2.397 1.592.768a9.7 9.7 0 011.665-3.6z" fill="#FAA875"/><path d="M19.187 28.807l-1.713-1.347a1.957 1.957 0 00-2.71.288 1.856 1.856 0 00.295 2.65l1.714 1.346 2.214 1.919 2.384-3.042-2.184-1.814z" fill="#FABC91"/><path d="M21.422 25.94l-1.626-1.368a1.772 1.772 0 00-2.571.293c-.633.824-.508 2.029.28 2.691l1.626 1.368 2.072 1.843 2.236-3.176-2.017-1.65z" fill="#FABC91"/><path d="M25.507 24.366l-1.518-1.362-1.102-.936-1.471 1.95a.392.392 0 01-.572.068l-.01-.008c-.803-.682-.93-1.922-.285-2.77.014-.019.03-.036.045-.054a1.873 1.873 0 00-.964.75c-.567.856-.374 2.038.397 2.692l1.624 1.378 1.176.97.556-.555 2.124-2.123zm-2.067 3.301l-2.02-1.61-1.068-.877-1.33 1.706a.455.455 0 01-.65.073l-.149-.122a1.898 1.898 0 01-.499-2.274 1.862 1.862 0 00-.711.773c-.396.794-.158 1.767.522 2.326l1.593 1.307 2.074 1.798.632-.875 1.605-2.225z" fill="#FAA875"/><path d="M26.3 34.84l-.694-.16a1.873 1.873 0 01.414-3.697l3.922-.015a2.734 2.734 0 011.61.517l4.939 3.554c.542.392.99.898 1.312 1.483l1.844 3.354 6.546 5.261c.478.385.546 1.088.15 1.557l-7.275 8.605a1.092 1.092 0 01-1.518.147l-4.947-3.977-.27-.01a7.86 7.86 0 01-4.434-1.574l-3.098-2.33s-5.223-3.887-5.223-4.014c0-.094 4.394-5.724 6.721-8.7z" fill="#FABC91"/><path d="M24.755 34.228l1.542-2.01-.672-.159a1.804 1.804 0 01-.913-.534l-.004.004a1.869 1.869 0 00.047 2.7z" fill="#F8D3AA"/><path d="M46.194 45.138l-.891-.716-6.634 7.996a1.045 1.045 0 01-1.471.145l-4.59-3.76a.782.782 0 00-.465-.177 7.527 7.527 0 01-4.297-1.553l-3.001-2.3s-2.432-1.845-3.924-3.019c-.801 1.041-1.342 1.755-1.342 1.788 0 .126 5.223 4.014 5.223 4.014l3.098 2.33a7.861 7.861 0 004.434 1.573l.27.01 4.947 3.977a1.092 1.092 0 001.519-.146l7.274-8.605a1.092 1.092 0 00-.15-1.557z" fill="#FAA875"/><path d="M31.51 43.603l.337.243c.98.71 2.346.527 3.104-.416l3.949-4.913-1.097-1.995a4.5 4.5 0 00-1.312-1.482l-4.939-3.555a2.734 2.734 0 00-1.609-.517l-3.922.016c-.512.002-.976.21-1.314.545a1.873 1.873 0 00.9 3.151l.693.161-1.29 1.65c.055.016.11.03.166.043l.695.161 2.215.512a9.25 9.25 0 003.425 6.396zM21.26 30.775l-2.132-1.81-1.084-.872-1.192 1.496a.504.504 0 01-.71.079l-.207-.167a1.883 1.883 0 01-.615-2.034 1.876 1.876 0 00-.527.466c-.635.816-.463 2 .343 2.648l1.636 1.315 2.16 1.915.65-.847 1.678-2.19z" fill="#FAA875"/><path d="M36.491 35.04l-4.939-3.555a2.734 2.734 0 00-1.609-.517l-3.922.015c-.512.002-.976.21-1.314.546a1.873 1.873 0 00.9 3.151l.693.16c-2.327 2.977-6.721 8.607-6.721 8.701 0 .127 5.222 4.014 5.222 4.014l1.112.836c.18-.185.353-.38.517-.583l10.186-12.674c-.042-.032-.082-.064-.125-.095z" fill="#FAA875"/><path d="M36.352 29.979a2.01 2.01 0 00-2.824.307 2.006 2.006 0 00-.307-2.824 2.01 2.01 0 00-2.824.308 2.006 2.006 0 00-.306-2.823 2.009 2.009 0 00-2.825.306 2.008 2.008 0 10-3.131-2.516l-5.898 7.338-2.66 3.334-3.11-2.102a9.234 9.234 0 00-1.852 4.894l-.275 3.7-5.233 6.509a.978.978 0 00.126 1.355l9.192 7.883a.978.978 0 001.4-.13l4.746-5.906c.098-.12.24-.2.393-.223a6.805 6.805 0 004.353-2.475L36.66 32.803a2.004 2.004 0 00-.307-2.824z" fill="#FABC91"/><path d="M8.386 47.032a.961.961 0 01-.123-1.328l5.111-6.382.269-3.627a9.067 9.067 0 01.781-3.065l-1.957-1.323a9.234 9.234 0 00-1.852 4.894l-.275 3.7-5.233 6.509a.978.978 0 00.126 1.355l9.192 7.883a.978.978 0 001.4-.13l.989-1.23-8.428-7.255zm24.279-17.09a4.61 4.61 0 00-2.713-.877l-3.938.016c-1 .003-1.94.394-2.65 1.098a3.754 3.754 0 00-1.112 2.645 3.753 3.753 0 002.924 3.71l.695.161 2.214.512a9.25 9.25 0 001.54 4.346l7.027-8.742-3.987-2.87z" fill="#FAA875"/><path d="M37.803 36.523l1.356 2.468-3.873 4.979-2.05-1.42-.532-.429a7.369 7.369 0 01-2.751-5.574l-.02-.865-3.634-.84-.694-.161a1.873 1.873 0 01.415-3.697l3.922-.015a2.734 2.734 0 011.61.516l4.938 3.555c.543.391.99.897 1.313 1.483z" fill="#FABC91"/><path d="M30.226.952C27.674.068 25.153.066 22.664.946a1.075 1.075 0 00-.6 1.479l3.422 7.138a1.07 1.07 0 001.93 0l3.42-7.128a1.076 1.076 0 00-.61-1.483z" fill="url(#paint0_linear_221_183)"/><path d="M52.36 11.53c-1.347-2.33-3.212-3.958-5.597-4.885-.573-.224-1.205.132-1.354.753l-1.855 7.718c-.21.878.643 1.621 1.43 1.246l6.916-3.295c.56-.267.778-.987.46-1.537z" fill="url(#paint1_linear_221_183)"/><path d="M.539 11.53C1.885 9.2 3.75 7.572 6.135 6.645c.574-.224 1.206.132 1.355.753l1.854 7.718c.211.878-.642 1.621-1.43 1.246L.998 13.067C.438 12.8.22 12.08.538 11.53z" fill="url(#paint2_linear_221_183)"/><path d="M15.674 33.398l1.147-1.347-1.183-.87-1.133 1.33a.682.682 0 00.138 1.013.78.78 0 001.031-.126z" fill="#FAA875"/><defs><linearGradient id="paint0_linear_221_183" x1="30.752" y1="9.416" x2="21.586" y2="-7.525" gradientUnits="userSpaceOnUse"><stop stop-color="#F09642"/><stop offset="1" stop-color="#F4E26E"/></linearGradient><linearGradient id="paint1_linear_221_183" x1="44.19" y1="9.897" x2="49.766" y2="18.129" gradientUnits="userSpaceOnUse"><stop stop-color="#272671"/><stop offset="1" stop-color="#7BB3CB"/></linearGradient><linearGradient id="paint2_linear_221_183" x1="1.06" y1="9.897" x2="6.635" y2="18.129" gradientUnits="userSpaceOnUse"><stop stop-color="#272671"/><stop offset="1" stop-color="#7BB3CB"/></linearGradient></defs></svg>