<svg width="61" height="61" fill="none" xmlns="http://www.w3.org/2000/svg"><path d="M54.112 20.167H37.386A6.896 6.896 0 0130.5 13.28a6.896 6.896 0 018.01-6.795A9.36 9.36 0 0147.224.49c3.929 0 7.462 2.51 8.787 6.171A6.898 6.898 0 0161 13.281a6.896 6.896 0 01-6.887 6.886z" fill="url(#paint0_linear_221_175)"/><path d="M59.606 32.636a25.031 25.031 0 00-11.14-2.63H36.06l-11.15-7.87h-9.575l7.871 7.87h-8.073l-8.855-7.87H.454l3.898 8.771-1.4.234v3.306l.63.45a26.416 26.416 0 0015.44 4.948h2.217l-7.2 7.199 1.006.664c.314.208.61.447.88.71l.287.282h5.747l12.544-8.855h13.715a24.78 24.78 0 009.813-2.014l1.44-.617a2.523 2.523 0 001.53-2.32 2.51 2.51 0 00-1.395-2.258zm-39.52-8.533h4.2l8.362 5.903h-6.66l-5.903-5.903zm-16.603 0H5.53l6.641 5.903h-1.354c-.703 0-1.41.06-2.103.174l-2.356.393-2.875-6.47zm55.214 11.302l-1.44.617a22.801 22.801 0 01-9.039 1.855H37.291l1.649-1.164-1.136-1.607-16.47 11.626h-4.2L27.26 36.605l-1.391-1.391-2.664 2.663H19.02a24.462 24.462 0 01-14.1-4.443v-.627l4.117-.686a10.906 10.906 0 011.779-.147h37.648c3.544 0 7.092.837 10.26 2.421a.555.555 0 01-.029 1.01z" fill="url(#paint1_linear_221_175)"/><path d="M20.085 24.103h4.2l8.363 5.903h-6.66l-5.903-5.903z" fill="url(#paint2_linear_221_175)"/><path d="M58.697 35.405l-1.44.617a22.801 22.801 0 01-9.039 1.855H37.291l1.649-1.164-1.136-1.607-16.47 11.626h-4.2L27.26 36.605l-1.391-1.391-2.664 2.663H19.02a24.462 24.462 0 01-14.1-4.443v-.627l4.117-.686a10.906 10.906 0 011.779-.147h37.648c3.544 0 7.092.837 10.26 2.421a.555.555 0 01-.029 1.01z" fill="url(#paint3_linear_221_175)"/><path d="M3.483 24.103H5.53l6.641 5.903h-1.354c-.703 0-1.41.06-2.103.174l-2.356.393-2.875-6.47z" fill="url(#paint4_linear_221_175)"/><path d="M17.71 60.506H5.903A5.909 5.909 0 010 54.603c0-2.89 2.128-5.339 4.94-5.802a7.905 7.905 0 016.866-4.037 7.879 7.879 0 017.698 6.251 4.897 4.897 0 013.125 4.572 4.925 4.925 0 01-4.92 4.919z" fill="url(#paint5_linear_221_175)"/><defs><linearGradient id="paint0_linear_221_175" x1="60.355" y1="18.663" x2="47.785" y2="-20.948" gradientUnits="userSpaceOnUse"><stop stop-color="#F09642"/><stop offset="1" stop-color="#F4E26E"/></linearGradient><linearGradient id="paint1_linear_221_175" x1="-1.11" y1="23.844" x2="54.675" y2="82.703" gradientUnits="userSpaceOnUse"><stop stop-color="#272671"/><stop offset="1" stop-color="#7BB3CB"/></linearGradient><linearGradient id="paint2_linear_221_175" x1="-1.11" y1="23.844" x2="54.675" y2="82.703" gradientUnits="userSpaceOnUse"><stop stop-color="#272671"/><stop offset="1" stop-color="#7BB3CB"/></linearGradient><linearGradient id="paint3_linear_221_175" x1="-1.11" y1="23.844" x2="54.675" y2="82.703" gradientUnits="userSpaceOnUse"><stop stop-color="#272671"/><stop offset="1" stop-color="#7BB3CB"/></linearGradient><linearGradient id="paint4_linear_221_175" x1="-1.11" y1="23.844" x2="54.675" y2="82.703" gradientUnits="userSpaceOnUse"><stop stop-color="#272671"/><stop offset="1" stop-color="#7BB3CB"/></linearGradient><linearGradient id="paint5_linear_221_175" x1="22.151" y1="59.302" x2="11.467" y2="28.078" gradientUnits="userSpaceOnUse"><stop stop-color="#F09642"/><stop offset="1" stop-color="#F4E26E"/></linearGradient></defs></svg>