<svg width="52" height="52" fill="none" xmlns="http://www.w3.org/2000/svg"><g clip-path="url(#clip0_221_286)"><mask id="a" maskUnits="userSpaceOnUse" x="-.996" y="1" width="51" height="49" fill="#000"><path fill="#fff" d="M-.996 1h51v49h-51z"/><path d="M46.57 27.923v-7.78l2.148-1.709a.77.77 0 00.234-.288.745.745 0 00.068-.36.807.807 0 00-.11-.354.837.837 0 00-.257-.272L24.963 2.125a.87.87 0 00-.9 0L.373 17.16a.836.836 0 00-.258.272.807.807 0 00-.11.354.745.745 0 00.069.36.77.77 0 00.234.288L8.99 25.32v.451a16.183 16.183 0 00-1.633 7.205 16.2 16.2 0 001.747 7.18 16.73 16.73 0 004.782 5.74 17.399 17.399 0 006.876 3.17c2.508.544 5.11.535 7.615-.025a17.391 17.391 0 006.853-3.216 16.72 16.72 0 004.741-5.772 16.19 16.19 0 001.696-7.191 16.053 16.053 0 00-1.634-7.09v-.452l4.902-3.885v6.489L42.934 31.8a2.312 2.312 0 00.11 2.311c.22.345.528.629.893.825.365.197.777.3 1.195.299h1.241c.418 0 .83-.102 1.195-.299a2.42 2.42 0 00.893-.825 2.312 2.312 0 00.11-2.311l-2.002-3.877zm-28.576 4.146a26.997 26.997 0 011.732-9.274 48.669 48.669 0 014.787-.222c1.598-.005 3.196.07 4.787.222a26.997 26.997 0 011.732 9.274H17.994zm13.038 1.583a29.015 29.015 0 01-1.021 7.225 17.348 17.348 0 00-10.996 0 29.015 29.015 0 01-1.021-7.225h13.038zm-6.52-12.662c-5.587 0-11.2.863-13.887 2.517v-4.89c0-1.077 4.902-3.166 13.888-3.166S38.4 17.541 38.4 18.616v4.891c-2.687-1.654-8.3-2.517-13.887-2.517zm-6.616 2.019a29.513 29.513 0 00-1.536 9.06H9.016c.1-2.003.62-3.966 1.527-5.769a.753.753 0 00.082-.348v-.213c0-.768 2.533-2.058 7.27-2.73zM9.032 33.651h7.328c.039 2.637.42 5.258 1.136 7.803a17.364 17.364 0 00-3.734 2.224c-2.837-2.637-4.529-6.223-4.73-10.027zm5.988 11.08a15.54 15.54 0 012.974-1.766 14.048 14.048 0 002.483 4.392 15.617 15.617 0 01-5.457-2.627zm9.493 3.165c-1.83 0-3.734-2.042-5.008-5.508a15.647 15.647 0 0110.015 0c-1.274 3.466-3.177 5.508-5.007 5.508zm4.035-.539a14.048 14.048 0 002.484-4.392 15.54 15.54 0 012.973 1.765 15.617 15.617 0 01-5.457 2.627zm6.715-3.68a17.37 17.37 0 00-3.733-2.223 30.477 30.477 0 001.136-7.803h7.327c-.2 3.804-1.892 7.39-4.73 10.027zM32.666 32.07a29.51 29.51 0 00-1.536-9.061c4.738.672 7.27 1.962 7.27 2.73v.213c0 .121.027.24.082.348a14.45 14.45 0 011.528 5.77h-7.344zm7.368-8.793v-4.66c0-3.119-7.81-4.749-15.521-4.749-7.712 0-15.522 1.63-15.522 4.748v4.662l-6.788-5.382L24.513 3.74l22.31 14.157-6.789 5.381zm7.034 10.003a.778.778 0 01-.296.277.81.81 0 01-.399.095h-1.241a.81.81 0 01-.4-.095.778.778 0 01-.295-.277.78.78 0 01-.04-.775l1.356-2.62 1.356 2.62a.776.776 0 01-.041.775z"/></mask><path d="M46.57 27.923v-7.78l2.148-1.709a.77.77 0 00.234-.288.745.745 0 00.068-.36.807.807 0 00-.11-.354.837.837 0 00-.257-.272L24.963 2.125a.87.87 0 00-.9 0L.373 17.16a.836.836 0 00-.258.272.807.807 0 00-.11.354.745.745 0 00.069.36.77.77 0 00.234.288L8.99 25.32v.451a16.183 16.183 0 00-1.633 7.205 16.2 16.2 0 001.747 7.18 16.73 16.73 0 004.782 5.74 17.399 17.399 0 006.876 3.17c2.508.544 5.11.535 7.615-.025a17.391 17.391 0 006.853-3.216 16.72 16.72 0 004.741-5.772 16.19 16.19 0 001.696-7.191 16.053 16.053 0 00-1.634-7.09v-.452l4.902-3.885v6.489L42.934 31.8a2.312 2.312 0 00.11 2.311c.22.345.528.629.893.825.365.197.777.3 1.195.299h1.241c.418 0 .83-.102 1.195-.299a2.42 2.42 0 00.893-.825 2.312 2.312 0 00.11-2.311l-2.002-3.877zm-28.576 4.146a26.997 26.997 0 011.732-9.274 48.669 48.669 0 014.787-.222c1.598-.005 3.196.07 4.787.222a26.997 26.997 0 011.732 9.274H17.994zm13.038 1.583a29.015 29.015 0 01-1.021 7.225 17.348 17.348 0 00-10.996 0 29.015 29.015 0 01-1.021-7.225h13.038zm-6.52-12.662c-5.587 0-11.2.863-13.887 2.517v-4.89c0-1.077 4.902-3.166 13.888-3.166S38.4 17.541 38.4 18.616v4.891c-2.687-1.654-8.3-2.517-13.887-2.517zm-6.616 2.019a29.513 29.513 0 00-1.536 9.06H9.016c.1-2.003.62-3.966 1.527-5.769a.753.753 0 00.082-.348v-.213c0-.768 2.533-2.058 7.27-2.73zM9.032 33.651h7.328c.039 2.637.42 5.258 1.136 7.803a17.364 17.364 0 00-3.734 2.224c-2.837-2.637-4.529-6.223-4.73-10.027zm5.988 11.08a15.54 15.54 0 012.974-1.766 14.048 14.048 0 002.483 4.392 15.617 15.617 0 01-5.457-2.627zm9.493 3.165c-1.83 0-3.734-2.042-5.008-5.508a15.647 15.647 0 0110.015 0c-1.274 3.466-3.177 5.508-5.007 5.508zm4.035-.539a14.048 14.048 0 002.484-4.392 15.54 15.54 0 012.973 1.765 15.617 15.617 0 01-5.457 2.627zm6.715-3.68a17.37 17.37 0 00-3.733-2.223 30.477 30.477 0 001.136-7.803h7.327c-.2 3.804-1.892 7.39-4.73 10.027zM32.666 32.07a29.51 29.51 0 00-1.536-9.061c4.738.672 7.27 1.962 7.27 2.73v.213c0 .121.027.24.082.348a14.45 14.45 0 011.528 5.77h-7.344zm7.368-8.793v-4.66c0-3.119-7.81-4.749-15.521-4.749-7.712 0-15.522 1.63-15.522 4.748v4.662l-6.788-5.382L24.513 3.74l22.31 14.157-6.789 5.381zm7.034 10.003a.778.778 0 01-.296.277.81.81 0 01-.399.095h-1.241a.81.81 0 01-.4-.095.778.778 0 01-.295-.277.78.78 0 01-.04-.775l1.356-2.62 1.356 2.62a.776.776 0 01-.041.775z" fill="url(#paint0_linear_221_286)"/><path d="M46.57 27.923v-7.78l2.148-1.709a.77.77 0 00.234-.288.745.745 0 00.068-.36.807.807 0 00-.11-.354.837.837 0 00-.257-.272L24.963 2.125a.87.87 0 00-.9 0L.373 17.16a.836.836 0 00-.258.272.807.807 0 00-.11.354.745.745 0 00.069.36.77.77 0 00.234.288L8.99 25.32v.451a16.183 16.183 0 00-1.633 7.205 16.2 16.2 0 001.747 7.18 16.73 16.73 0 004.782 5.74 17.399 17.399 0 006.876 3.17c2.508.544 5.11.535 7.615-.025a17.391 17.391 0 006.853-3.216 16.72 16.72 0 004.741-5.772 16.19 16.19 0 001.696-7.191 16.053 16.053 0 00-1.634-7.09v-.452l4.902-3.885v6.489L42.934 31.8a2.312 2.312 0 00.11 2.311c.22.345.528.629.893.825.365.197.777.3 1.195.299h1.241c.418 0 .83-.102 1.195-.299a2.42 2.42 0 00.893-.825 2.312 2.312 0 00.11-2.311l-2.002-3.877zm-28.576 4.146a26.997 26.997 0 011.732-9.274 48.669 48.669 0 014.787-.222c1.598-.005 3.196.07 4.787.222a26.997 26.997 0 011.732 9.274H17.994zm13.038 1.583a29.015 29.015 0 01-1.021 7.225 17.348 17.348 0 00-10.996 0 29.015 29.015 0 01-1.021-7.225h13.038zm-6.52-12.662c-5.587 0-11.2.863-13.887 2.517v-4.89c0-1.077 4.902-3.166 13.888-3.166S38.4 17.541 38.4 18.616v4.891c-2.687-1.654-8.3-2.517-13.887-2.517zm-6.616 2.019a29.513 29.513 0 00-1.536 9.06H9.016c.1-2.003.62-3.966 1.527-5.769a.753.753 0 00.082-.348v-.213c0-.768 2.533-2.058 7.27-2.73zM9.032 33.651h7.328c.039 2.637.42 5.258 1.136 7.803a17.364 17.364 0 00-3.734 2.224c-2.837-2.637-4.529-6.223-4.73-10.027zm5.988 11.08a15.54 15.54 0 012.974-1.766 14.048 14.048 0 002.483 4.392 15.617 15.617 0 01-5.457-2.627zm9.493 3.165c-1.83 0-3.734-2.042-5.008-5.508a15.647 15.647 0 0110.015 0c-1.274 3.466-3.177 5.508-5.007 5.508zm4.035-.539a14.048 14.048 0 002.484-4.392 15.54 15.54 0 012.973 1.765 15.617 15.617 0 01-5.457 2.627zm6.715-3.68a17.37 17.37 0 00-3.733-2.223 30.477 30.477 0 001.136-7.803h7.327c-.2 3.804-1.892 7.39-4.73 10.027zM32.666 32.07a29.51 29.51 0 00-1.536-9.061c4.738.672 7.27 1.962 7.27 2.73v.213c0 .121.027.24.082.348a14.45 14.45 0 011.528 5.77h-7.344zm7.368-8.793v-4.66c0-3.119-7.81-4.749-15.521-4.749-7.712 0-15.522 1.63-15.522 4.748v4.662l-6.788-5.382L24.513 3.74l22.31 14.157-6.789 5.381zm7.034 10.003a.778.778 0 01-.296.277.81.81 0 01-.399.095h-1.241a.81.81 0 01-.4-.095.778.778 0 01-.295-.277.78.78 0 01-.04-.775l1.356-2.62 1.356 2.62a.776.776 0 01-.041.775z" stroke="url(#paint1_linear_221_286)" mask="url(#a)"/></g><defs><linearGradient id="paint0_linear_221_286" x1="-6.123" y1="-5.429" x2="57.164" y2="70.006" gradientUnits="userSpaceOnUse"><stop stop-color="#1C2D5A"/><stop offset="1" stop-color="#4FC3DD" stop-opacity=".96"/></linearGradient><linearGradient id="paint1_linear_221_286" x1="24.513" y1="2" x2="24.513" y2="49.467" gradientUnits="userSpaceOnUse"><stop stop-color="#1C2D5A"/><stop offset="1" stop-color="#4FC3DD"/></linearGradient><clipPath id="clip0_221_286"><path fill="#fff" d="M0 0h52v52H0z"/></clipPath></defs></svg>