<svg width="52" height="52" fill="none" xmlns="http://www.w3.org/2000/svg"><g clip-path="url(#clip0_221_298)"><path d="M40.063 20.482c2.81-2.105 4.617-5.357 4.617-8.999C44.68 5.151 39.223 0 32.516 0 25.808 0 20.35 5.151 20.35 11.483c0 .415.024.825.07 1.229a10.103 10.103 0 00-4.654-1.124c-5.355 0-9.711 4.113-9.711 9.169 0 2.635 1.186 5.013 3.078 6.688C4.938 29.19 2 33.167 2 37.782v10.662C2 50.404 3.683 52 5.751 52h39.902C48.05 52 50 50.151 50 47.879V33.894c0-6.164-4.148-11.426-9.937-13.412zM32.516 3.485c4.68 0 8.487 3.588 8.487 7.998s-3.807 7.998-8.487 7.998-8.489-3.588-8.489-7.998 3.808-7.998 8.489-7.998zM15.767 15.073c3.327 0 6.035 2.55 6.035 5.684 0 .454-.058.905-.17 1.342a14.76 14.76 0 00-4.24 4.133 6.39 6.39 0 01-1.625.208c-3.327 0-6.034-2.55-6.034-5.683 0-3.134 2.707-5.684 6.034-5.684zM5.677 48.444V37.782c0-4.3 3.69-7.799 8.226-7.799h1.703a13.528 13.528 0 00-.575 3.911V47.88c0 .216.018.428.052.636H5.75c-.037 0-.074-.036-.074-.07zm40.646-.565c0 .345-.307.636-.67.636H19.378c-.363 0-.67-.291-.67-.636V33.894c0-5.94 5.097-10.772 11.363-10.772h4.889c6.266 0 11.363 4.832 11.363 10.772V47.88z" fill="url(#paint0_linear_221_298)"/></g><defs><linearGradient id="paint0_linear_221_298" x1="-4" y1="-8.138" x2="66.262" y2="66.722" gradientUnits="userSpaceOnUse"><stop stop-color="#1C2D5A"/><stop offset="1" stop-color="#4FC3DD" stop-opacity=".96"/></linearGradient><clipPath id="clip0_221_298"><path fill="#fff" d="M0 0h52v52H0z"/></clipPath></defs></svg>