<svg width="86" height="79" fill="none" xmlns="http://www.w3.org/2000/svg"><path d="M63.558 11.784c6.762 2.224 18.384 12.237 14.208 31.62-6.144 18.587-25.555 31.06-43.327 25.215-17.773-5.846-20.471-16.78-17.69-25.193 2.66-8.049 18.678-3.249 24.149-9.09 7.162-7.65 12.583-25.867 22.66-22.552z" fill="#C4EC8E"/><mask id="a" maskUnits="userSpaceOnUse" x="0" y="-.001" width="60" height="60" fill="#000"><path fill="#fff" d="M0-.001h60v60H0z"/><path d="M45.563 20.232c-2.3 0-4.547.676-6.46 1.944a11.559 11.559 0 00-4.28 5.18 11.462 11.462 0 00-.662 6.666 11.514 11.514 0 003.181 5.91 11.652 11.652 0 005.953 3.157 11.7 11.7 0 006.716-.656 11.608 11.608 0 005.217-4.25 11.48 11.48 0 001.96-6.412 11.51 11.51 0 00-3.41-8.156 11.681 11.681 0 00-8.215-3.383zm0 21.156a9.738 9.738 0 01-5.383-1.621 9.632 9.632 0 01-3.568-4.316 9.55 9.55 0 01-.55-5.556 9.595 9.595 0 012.65-4.924 9.71 9.71 0 014.96-2.631 9.754 9.754 0 015.598.547 9.672 9.672 0 014.347 3.542 9.566 9.566 0 011.633 5.342 9.592 9.592 0 01-2.84 6.797 9.735 9.735 0 01-6.847 2.82z"/><path d="M45.563 28.886H47.5a.972.972 0 00.685-.281.958.958 0 000-1.36.973.973 0 00-.685-.282h-.969v-.962a.96.96 0 00-.283-.68.972.972 0 00-1.37 0 .958.958 0 00-.284.68v1.127a2.9 2.9 0 00-1.537 1.26 2.867 2.867 0 00.633 3.665 2.92 2.92 0 001.873.68c.256 0 .503.101.684.282a.958.958 0 010 1.36.973.973 0 01-.684.281h-1.938a.973.973 0 00-.685.282.958.958 0 000 1.36c.182.18.428.281.685.281h.969v.962c0 .255.102.5.283.68a.973.973 0 001.37 0 .958.958 0 00.284-.68v-1.127a2.901 2.901 0 001.537-1.26 2.867 2.867 0 00-.633-3.665 2.918 2.918 0 00-1.873-.68.972.972 0 01-.684-.281.958.958 0 010-1.36.973.973 0 01.684-.282z"/><path d="M54.638 43.95l-19.624 5.083-4.378-1.739 2.422-.598a3.16 3.16 0 001.863-1.301 3.12 3.12 0 00-.627-4.172 3.177 3.177 0 00-2.163-.706l-16.58.87-3.895-.002v-.959c0-.255-.102-.5-.284-.68a.973.973 0 00-.684-.282h-6.38l6.78-6.731h7.35a.975.975 0 00.684-.282L33.37 18.308h8.318a.975.975 0 00.684-.282L56.22 4.282V7.73c0 .255.102.5.283.68a.972.972 0 001.37 0 .958.958 0 00.284-.68V1.96a.96.96 0 00-.283-.68.972.972 0 00-.686-.28h-5.813a.972.972 0 00-.685.281.958.958 0 000 1.36c.182.18.428.282.685.282h3.474L41.286 16.385H32.97a.974.974 0 00-.685.281L18.036 30.81h-7.349a.973.973 0 00-.684.281l-8.72 8.655a.958.958 0 00-.283.68v17.31c0 .255.102.5.284.68.181.18.428.281.685.281h8.719a.972.972 0 00.684-.281.958.958 0 00.284-.68v-1.089l5.813-.819 16.291 3.805c.19.044.388.031.57-.038l22.583-8.623a3.71 3.71 0 002.021-1.853c.41-.852.477-1.827.186-2.725a3.7 3.7 0 00-1.751-2.107 3.745 3.745 0 00-2.73-.337zM9.718 56.774h-6.78V41.388h6.78v15.386zm5.909-13.464l16.603-.873a1.232 1.232 0 011.11.589 1.207 1.207 0 01-.32 1.6 1.218 1.218 0 01-.431.203l-9.542 2.357a.97.97 0 00-.73.79.957.957 0 00.46.97.972.972 0 00.738.106l3.904-.964 7.171 2.847c.192.076.404.09.604.038l19.932-5.162c.441-.113.909-.055 1.308.163s.698.58.838 1.01c.139.43.107.896-.089 1.304a1.779 1.779 0 01-.967.889l-22.303 8.516-16.178-3.778a.97.97 0 00-.358-.016l-5.72.806V43.308l3.97.002z"/></mask><path d="M45.563 20.232c-2.3 0-4.547.676-6.46 1.944a11.559 11.559 0 00-4.28 5.18 11.462 11.462 0 00-.662 6.666 11.514 11.514 0 003.181 5.91 11.652 11.652 0 005.953 3.157 11.7 11.7 0 006.716-.656 11.608 11.608 0 005.217-4.25 11.48 11.48 0 001.96-6.412 11.51 11.51 0 00-3.41-8.156 11.681 11.681 0 00-8.215-3.383zm0 21.156a9.738 9.738 0 01-5.383-1.621 9.632 9.632 0 01-3.568-4.316 9.55 9.55 0 01-.55-5.556 9.595 9.595 0 012.65-4.924 9.71 9.71 0 014.96-2.631 9.754 9.754 0 015.598.547 9.672 9.672 0 014.347 3.542 9.566 9.566 0 011.633 5.342 9.592 9.592 0 01-2.84 6.797 9.735 9.735 0 01-6.847 2.82z" fill="#1C2D5A"/><path d="M45.563 28.886H47.5a.972.972 0 00.685-.281.958.958 0 000-1.36.973.973 0 00-.685-.282h-.969v-.962a.96.96 0 00-.283-.68.972.972 0 00-1.37 0 .958.958 0 00-.284.68v1.127a2.9 2.9 0 00-1.537 1.26 2.867 2.867 0 00.633 3.665 2.92 2.92 0 001.873.68c.256 0 .503.101.684.282a.958.958 0 010 1.36.973.973 0 01-.684.281h-1.938a.973.973 0 00-.685.282.958.958 0 000 1.36c.182.18.428.281.685.281h.969v.962c0 .255.102.5.283.68a.973.973 0 001.37 0 .958.958 0 00.284-.68v-1.127a2.901 2.901 0 001.537-1.26 2.867 2.867 0 00-.633-3.665 2.918 2.918 0 00-1.873-.68.972.972 0 01-.684-.281.958.958 0 010-1.36.973.973 0 01.684-.282z" fill="#1C2D5A"/><path d="M54.638 43.95l-19.624 5.083-4.378-1.739 2.422-.598a3.16 3.16 0 001.863-1.301 3.12 3.12 0 00-.627-4.172 3.177 3.177 0 00-2.163-.706l-16.58.87-3.895-.002v-.959c0-.255-.102-.5-.284-.68a.973.973 0 00-.684-.282h-6.38l6.78-6.731h7.35a.975.975 0 00.684-.282L33.37 18.308h8.318a.975.975 0 00.684-.282L56.22 4.282V7.73c0 .255.102.5.283.68a.972.972 0 001.37 0 .958.958 0 00.284-.68V1.96a.96.96 0 00-.283-.68.972.972 0 00-.686-.28h-5.813a.972.972 0 00-.685.281.958.958 0 000 1.36c.182.18.428.282.685.282h3.474L41.286 16.385H32.97a.974.974 0 00-.685.281L18.036 30.81h-7.349a.973.973 0 00-.684.281l-8.72 8.655a.958.958 0 00-.283.68v17.31c0 .255.102.5.284.68.181.18.428.281.685.281h8.719a.972.972 0 00.684-.281.958.958 0 00.284-.68v-1.089l5.813-.819 16.291 3.805c.19.044.388.031.57-.038l22.583-8.623a3.71 3.71 0 002.021-1.853c.41-.852.477-1.827.186-2.725a3.7 3.7 0 00-1.751-2.107 3.745 3.745 0 00-2.73-.337zM9.718 56.774h-6.78V41.388h6.78v15.386zm5.909-13.464l16.603-.873a1.232 1.232 0 011.11.589 1.207 1.207 0 01-.32 1.6 1.218 1.218 0 01-.431.203l-9.542 2.357a.97.97 0 00-.73.79.957.957 0 00.46.97.972.972 0 00.738.106l3.904-.964 7.171 2.847c.192.076.404.09.604.038l19.932-5.162c.441-.113.909-.055 1.308.163s.698.58.838 1.01c.139.43.107.896-.089 1.304a1.779 1.779 0 01-.967.889l-22.303 8.516-16.178-3.778a.97.97 0 00-.358-.016l-5.72.806V43.308l3.97.002z" fill="#1C2D5A"/><path d="M45.563 20.232c-2.3 0-4.547.676-6.46 1.944a11.559 11.559 0 00-4.28 5.18 11.462 11.462 0 00-.662 6.666 11.514 11.514 0 003.181 5.91 11.652 11.652 0 005.953 3.157 11.7 11.7 0 006.716-.656 11.608 11.608 0 005.217-4.25 11.48 11.48 0 001.96-6.412 11.51 11.51 0 00-3.41-8.156 11.681 11.681 0 00-8.215-3.383zm0 21.156a9.738 9.738 0 01-5.383-1.621 9.632 9.632 0 01-3.568-4.316 9.55 9.55 0 01-.55-5.556 9.595 9.595 0 012.65-4.924 9.71 9.71 0 014.96-2.631 9.754 9.754 0 015.598.547 9.672 9.672 0 014.347 3.542 9.566 9.566 0 011.633 5.342 9.592 9.592 0 01-2.84 6.797 9.735 9.735 0 01-6.847 2.82z" stroke="#1C2D5A" stroke-width=".6" mask="url(#a)"/><path d="M45.563 28.886H47.5a.972.972 0 00.685-.281.958.958 0 000-1.36.973.973 0 00-.685-.282h-.969v-.962a.96.96 0 00-.283-.68.972.972 0 00-1.37 0 .958.958 0 00-.284.68v1.127a2.9 2.9 0 00-1.537 1.26 2.867 2.867 0 00.633 3.665 2.92 2.92 0 001.873.68c.256 0 .503.101.684.282a.958.958 0 010 1.36.973.973 0 01-.684.281h-1.938a.973.973 0 00-.685.282.958.958 0 000 1.36c.182.18.428.281.685.281h.969v.962c0 .255.102.5.283.68a.973.973 0 001.37 0 .958.958 0 00.284-.68v-1.127a2.901 2.901 0 001.537-1.26 2.867 2.867 0 00-.633-3.665 2.918 2.918 0 00-1.873-.68.972.972 0 01-.684-.281.958.958 0 010-1.36.973.973 0 01.684-.282z" stroke="#1C2D5A" stroke-width=".6" mask="url(#a)"/><path d="M54.638 43.95l-19.624 5.083-4.378-1.739 2.422-.598a3.16 3.16 0 001.863-1.301 3.12 3.12 0 00-.627-4.172 3.177 3.177 0 00-2.163-.706l-16.58.87-3.895-.002v-.959c0-.255-.102-.5-.284-.68a.973.973 0 00-.684-.282h-6.38l6.78-6.731h7.35a.975.975 0 00.684-.282L33.37 18.308h8.318a.975.975 0 00.684-.282L56.22 4.282V7.73c0 .255.102.5.283.68a.972.972 0 001.37 0 .958.958 0 00.284-.68V1.96a.96.96 0 00-.283-.68.972.972 0 00-.686-.28h-5.813a.972.972 0 00-.685.281.958.958 0 000 1.36c.182.18.428.282.685.282h3.474L41.286 16.385H32.97a.974.974 0 00-.685.281L18.036 30.81h-7.349a.973.973 0 00-.684.281l-8.72 8.655a.958.958 0 00-.283.68v17.31c0 .255.102.5.284.68.181.18.428.281.685.281h8.719a.972.972 0 00.684-.281.958.958 0 00.284-.68v-1.089l5.813-.819 16.291 3.805c.19.044.388.031.57-.038l22.583-8.623a3.71 3.71 0 002.021-1.853c.41-.852.477-1.827.186-2.725a3.7 3.7 0 00-1.751-2.107 3.745 3.745 0 00-2.73-.337zM9.718 56.774h-6.78V41.388h6.78v15.386zm5.909-13.464l16.603-.873a1.232 1.232 0 011.11.589 1.207 1.207 0 01-.32 1.6 1.218 1.218 0 01-.431.203l-9.542 2.357a.97.97 0 00-.73.79.957.957 0 00.46.97.972.972 0 00.738.106l3.904-.964 7.171 2.847c.192.076.404.09.604.038l19.932-5.162c.441-.113.909-.055 1.308.163s.698.58.838 1.01c.139.43.107.896-.089 1.304a1.779 1.779 0 01-.967.889l-22.303 8.516-16.178-3.778a.97.97 0 00-.358-.016l-5.72.806V43.308l3.97.002z" stroke="#1C2D5A" stroke-width=".6" mask="url(#a)"/></svg>