<svg width="101" height="78" fill="none" xmlns="http://www.w3.org/2000/svg"><path d="M11.91 23.936c-.925-9.78 27.655-17.208 40.796-13.58 19.309 5.983 43.261 30.842 37.48 52.195-1.985 7.33-10.74 13.692-22.67 10.496-11.41-3.058-17.913-20.566-26.646-27.02-11.435-8.45-27.534-7.017-28.96-22.09z" fill="#F7D880"/><mask id="a" maskUnits="userSpaceOnUse" x="6" y="5" width="54" height="50" fill="#000"><path fill="#fff" d="M6 5h54v50H6z"/><path d="M54.667 11.2h-4.334V9.467a3.467 3.467 0 10-6.933 0V11.2h-6.933V9.467a3.467 3.467 0 00-6.934 0V11.2H22.6V9.467a3.466 3.466 0 10-6.933 0V11.2h-4.334A4.333 4.333 0 007 15.533V50.2a4.333 4.333 0 004.333 4.333H35.6a.867.867 0 100-1.733H11.333a2.608 2.608 0 01-2.6-2.6V23.333h48.534v14.734a.867.867 0 001.733 0V15.533a4.333 4.333 0 00-4.333-4.333zm-9.534-1.733a1.734 1.734 0 013.467 0v5.2a1.733 1.733 0 11-3.467 0v-5.2zm-13.866 0a1.734 1.734 0 113.466 0v5.2a1.733 1.733 0 11-3.466 0v-5.2zm-13.867 0a1.733 1.733 0 113.467 0v5.2a1.733 1.733 0 01-3.467 0v-5.2zM57.267 21.6H8.733v-6.067a2.608 2.608 0 012.6-2.6h4.334v1.734a3.467 3.467 0 006.933 0v-1.734h6.933v1.734a3.467 3.467 0 006.934 0v-1.734H43.4v1.734a3.467 3.467 0 106.933 0v-1.734h4.334a2.608 2.608 0 012.6 2.6V21.6z"/></mask><path d="M54.667 11.2h-4.334V9.467a3.467 3.467 0 10-6.933 0V11.2h-6.933V9.467a3.467 3.467 0 00-6.934 0V11.2H22.6V9.467a3.466 3.466 0 10-6.933 0V11.2h-4.334A4.333 4.333 0 007 15.533V50.2a4.333 4.333 0 004.333 4.333H35.6a.867.867 0 100-1.733H11.333a2.608 2.608 0 01-2.6-2.6V23.333h48.534v14.734a.867.867 0 001.733 0V15.533a4.333 4.333 0 00-4.333-4.333zm-9.534-1.733a1.734 1.734 0 013.467 0v5.2a1.733 1.733 0 11-3.467 0v-5.2zm-13.866 0a1.734 1.734 0 113.466 0v5.2a1.733 1.733 0 11-3.466 0v-5.2zm-13.867 0a1.733 1.733 0 113.467 0v5.2a1.733 1.733 0 01-3.467 0v-5.2zM57.267 21.6H8.733v-6.067a2.608 2.608 0 012.6-2.6h4.334v1.734a3.467 3.467 0 006.933 0v-1.734h6.933v1.734a3.467 3.467 0 006.934 0v-1.734H43.4v1.734a3.467 3.467 0 106.933 0v-1.734h4.334a2.608 2.608 0 012.6 2.6V21.6z" fill="#1C2D5A"/><path d="M54.667 11.2h-4.334V9.467a3.467 3.467 0 10-6.933 0V11.2h-6.933V9.467a3.467 3.467 0 00-6.934 0V11.2H22.6V9.467a3.466 3.466 0 10-6.933 0V11.2h-4.334A4.333 4.333 0 007 15.533V50.2a4.333 4.333 0 004.333 4.333H35.6a.867.867 0 100-1.733H11.333a2.608 2.608 0 01-2.6-2.6V23.333h48.534v14.734a.867.867 0 001.733 0V15.533a4.333 4.333 0 00-4.333-4.333zm-9.534-1.733a1.734 1.734 0 013.467 0v5.2a1.733 1.733 0 11-3.467 0v-5.2zm-13.866 0a1.734 1.734 0 113.466 0v5.2a1.733 1.733 0 11-3.466 0v-5.2zm-13.867 0a1.733 1.733 0 113.467 0v5.2a1.733 1.733 0 01-3.467 0v-5.2zM57.267 21.6H8.733v-6.067a2.608 2.608 0 012.6-2.6h4.334v1.734a3.467 3.467 0 006.933 0v-1.734h6.933v1.734a3.467 3.467 0 006.934 0v-1.734H43.4v1.734a3.467 3.467 0 106.933 0v-1.734h4.334a2.608 2.608 0 012.6 2.6V21.6z" stroke="#1C2D5A" stroke-width=".8" mask="url(#a)"/><path d="M31.468 29.4a1.933 1.933 0 00-1.933-1.933h-3.467a1.933 1.933 0 00-1.933 1.934V32a1.933 1.933 0 001.933 1.933h3.467A1.934 1.934 0 0031.468 32v-2.6zm-5.2 2.4v-2.2h3.067v2.2h-3.067zm-5.203-2.4a1.934 1.934 0 00-1.934-1.933h-3.466a1.933 1.933 0 00-1.934 1.934V32a1.933 1.933 0 001.934 1.933h3.466A1.934 1.934 0 0021.065 32v-2.6zm-5.2 2.4v-2.2h3.066v2.2h-3.066zm34.468 2.134a1.933 1.933 0 001.933-1.933v-2.6a1.933 1.933 0 00-1.933-1.934h-3.467a1.933 1.933 0 00-1.933 1.934V32a1.933 1.933 0 001.933 1.933h3.467zm-3.267-4.333h3.067v2.2h-3.067v-2.2zm-15.598 7.598a1.933 1.933 0 00-1.933-1.933h-3.467a1.933 1.933 0 00-1.933 1.933v2.6a1.933 1.933 0 001.933 1.933h3.467a1.933 1.933 0 001.933-1.933v-2.6zm-5.2 2.4v-2.2h3.067v2.2h-3.067zm-5.203-2.4a1.933 1.933 0 00-1.934-1.933h-3.466a1.933 1.933 0 00-1.934 1.933v2.6a1.933 1.933 0 001.934 1.933h3.466a1.933 1.933 0 001.934-1.933v-2.6zm-5.2 2.4v-2.2h3.066v2.2h-3.066zm13.67 3.467h-3.467A1.933 1.933 0 0024.135 45v2.6a1.933 1.933 0 001.933 1.934h3.467a1.933 1.933 0 001.933-1.934V45a1.933 1.933 0 00-1.933-1.933zM26.268 47.4v-2.2h3.067v2.2h-3.067zm10.199-13.466h3.467a1.934 1.934 0 001.933-1.933v-2.6a1.934 1.934 0 00-1.933-1.934h-3.467a1.933 1.933 0 00-1.933 1.934V32a1.934 1.934 0 001.933 1.933zm.2-4.333h3.067v2.2h-3.067v-2.2zm-2.133 10.198a1.934 1.934 0 001.933 1.933 1.067 1.067 0 00.2-2.114v-2.219h3.267a1.066 1.066 0 100-2.133h-3.467a1.933 1.933 0 00-1.933 1.933v2.6zm-15.403 3.267h-3.466A1.933 1.933 0 0013.73 45v2.6a1.933 1.933 0 001.934 1.934h3.466a1.933 1.933 0 001.934-1.934V45a1.933 1.933 0 00-1.934-1.933zM15.865 47.4v-2.2h3.066v2.2h-3.066z" fill="#1C2D5A" stroke="#1C2D5A" stroke-width=".4"/><path d="M47.735 35.266h0A11.467 11.467 0 1059.2 46.732v0a11.48 11.48 0 00-11.466-11.466zm0 20.8a9.333 9.333 0 119.333-9.334 9.344 9.344 0 01-9.334 9.334z" fill="#1C2D5A" stroke="#1C2D5A" stroke-width=".4"/><path d="M52.6 42.957h0l-.002.002-6.6 6.6-2.922-2.923h0l-.002-.003a1.067 1.067 0 00-1.508 1.509h0l.002.002 3.676 3.677h0a1.067 1.067 0 001.509 0h0l7.353-7.353h0l.003-.003a1.066 1.066 0 00-1.509-1.508z" fill="#1C2D5A" stroke="#1C2D5A" stroke-width=".4"/></svg>