<svg width="12" height="12" fill="none" xmlns="http://www.w3.org/2000/svg"><g clip-path="url(#clip0_221_1376)" fill="#1C2D5A"><path d="M7.955 6.061L12 8.62V3.396L7.955 6.061zM0 3.396v5.223l4.045-2.558L0 3.396zm11.25-1.521H.75a.74.74 0 00-.727.638L6 6.452l5.978-3.939a.74.74 0 00-.728-.638zm-3.982 4.64l-1.061.699a.375.375 0 01-.413 0l-1.061-.7L.024 9.492a.74.74 0 00.726.633h10.5a.74.74 0 00.726-.633L7.268 6.515z"/></g><defs><clipPath id="clip0_221_1376"><path fill="#fff" d="M0 0h12v12H0z"/></clipPath></defs></svg>