<svg width="26" height="25" fill="none" xmlns="http://www.w3.org/2000/svg"><g clip-path="url(#clip0_221_406)"><path d="M15.185 24.951h-4.011c-.67 0-1.215-.544-1.215-1.213v-9.03h-2.34c-.67 0-1.216-.544-1.216-1.212v-3.87c0-.669.545-1.212 1.215-1.212h2.34V6.476c0-1.921.605-3.556 1.749-4.727C12.855.573 14.46-.049 16.348-.049l3.06.005A1.216 1.216 0 0120.62 1.17v3.593c0 .668-.545 1.212-1.215 1.212l-2.06.001c-.628 0-.788.126-.822.164-.056.064-.124.245-.124.743v1.531h2.851a1.217 1.217 0 011.226 1.213l-.001 3.87c0 .668-.545 1.212-1.215 1.212H16.4v9.03c0 .67-.546 1.213-1.216 1.213zm-3.758-1.465h3.505v-9.434c0-.446.364-.81.811-.81h3.264l.002-3.363h-3.266a.811.811 0 01-.811-.81V6.882c0-.572.058-1.223.491-1.713.523-.591 1.348-.66 1.923-.66h1.806V1.42l-2.805-.004c-3.034 0-4.92 1.938-4.92 5.059v2.593c0 .447-.364.81-.81.81H7.871v3.364h2.744c.447 0 .811.363.811.81v9.433zm7.978-22.064z" fill="#fff"/></g><defs><clipPath id="clip0_221_406"><path fill="#fff" transform="translate(.996)" d="M0 0h25v25H0z"/></clipPath></defs></svg>