<svg width="26" height="25" fill="none" xmlns="http://www.w3.org/2000/svg"><g clip-path="url(#clip0_221_412)" fill="#fff"><path d="M19.229 0H7.763A6.775 6.775 0 00.996 6.767v11.466A6.775 6.775 0 007.763 25H19.23a6.775 6.775 0 006.767-6.767V6.767A6.775 6.775 0 0019.229 0zm5.301 18.233a5.307 5.307 0 01-5.301 5.301H7.763a5.308 5.308 0 01-5.301-5.301V6.767a5.308 5.308 0 015.301-5.301H19.23a5.308 5.308 0 015.301 5.301v11.466z"/><path d="M13.497 5.664A6.843 6.843 0 006.66 12.5a6.843 6.843 0 006.836 6.835 6.843 6.843 0 006.836-6.835 6.843 6.843 0 00-6.836-6.836zm0 12.206a5.376 5.376 0 01-5.37-5.37 5.376 5.376 0 015.37-5.37 5.376 5.376 0 015.37 5.37 5.376 5.376 0 01-5.37 5.37zm7-14.633c-1.114 0-2.02.906-2.02 2.02 0 1.114.906 2.02 2.02 2.02 1.114 0 2.02-.906 2.02-2.02 0-1.114-.906-2.02-2.02-2.02zm0 2.574a.555.555 0 11.002-1.11.555.555 0 01-.002 1.11z"/></g><defs><clipPath id="clip0_221_412"><path fill="#fff" transform="translate(.996)" d="M0 0h25v25H0z"/></clipPath></defs></svg>