<svg width="12" height="11" fill="none" xmlns="http://www.w3.org/2000/svg"><g clip-path="url(#clip0_221_1389)"><path d="M11.672 8.073L9.998 6.538c-.598-.548-1.615-.33-1.854.384-.18.493-.778.767-1.316.657-1.196-.274-2.811-1.7-3.11-2.85-.18-.494.18-1.042.718-1.207.777-.219 1.016-1.15.418-1.7L3.18.289c-.479-.384-1.196-.384-1.615 0L.429 1.329c-1.137 1.097.12 4.003 2.93 6.58 2.811 2.576 5.981 3.782 7.177 2.686l1.136-1.042c.42-.438.42-1.096 0-1.48z" fill="#1C2D5A"/></g><defs><clipPath id="clip0_221_1389"><path fill="#fff" d="M0 0h12v11H0z"/></clipPath></defs></svg>