<svg width="26" height="25" fill="none" xmlns="http://www.w3.org/2000/svg"><g clip-path="url(#clip0_221_408)"><path d="M1.489 20.411a14.508 14.508 0 007.79 2.245c4.072 0 7.804-1.564 10.51-4.405 2.588-2.719 4.012-6.372 3.941-10.08.982-.839 2.136-2.442 2.136-4.005a.782.782 0 00-1.177-.673c-.922.541-1.763.683-2.628.44-1.765-1.72-4.393-2.083-6.608-.89-1.935 1.042-3.011 2.948-2.914 5.032a12.945 12.945 0 01-8.397-4.587.782.782 0 00-1.277.105C1.85 5.33 1.86 7.343 2.743 8.97a.813.813 0 00-.68.809 5.51 5.51 0 001.92 4.162.78.78 0 00-.2.809 5.608 5.608 0 003.174 3.4 9.099 9.099 0 01-4.954.827c-.816-.11-1.22.987-.514 1.434zm8.003-1.994c.584-.448.274-1.384-.46-1.4a4.075 4.075 0 01-3.2-1.664 5.513 5.513 0 001.067-.17c.793-.216.755-1.36-.05-1.52a4.01 4.01 0 01-3.039-2.73c.393.097.793.151 1.192.159.79.004 1.09-1.01.445-1.434-1.453-.957-2.073-2.648-1.663-4.237a14.524 14.524 0 009.622 4.294.78.78 0 00.8-.955c-.495-2.145.702-3.648 1.989-4.34 1.273-.688 3.317-.902 4.883.741.466.49 2.037.51 2.836.323-.359.675-.91 1.316-1.425 1.676a.781.781 0 00-.333.678c.168 3.422-1.107 6.824-3.498 9.334-2.408 2.528-5.738 3.92-9.379 3.92a13.12 13.12 0 01-4.21-.689 10.55 10.55 0 004.423-1.985z" fill="#fff"/></g><defs><clipPath id="clip0_221_408"><path fill="#fff" transform="translate(.996)" d="M0 0h25v25H0z"/></clipPath></defs></svg>