<svg width="13" height="14" fill="none" xmlns="http://www.w3.org/2000/svg"><g clip-path="url(#clip0_221_1372)" fill="#1C2D5A"><path d="M6.407 6.744c.86 0 1.605-.332 2.214-.988.609-.656.917-1.458.917-2.384 0-.926-.308-1.729-.917-2.384C8.012.332 7.267 0 6.407 0c-.86 0-1.605.332-2.214.988-.608.655-.917 1.457-.917 2.384 0 .926.309 1.729.917 2.384.61.655 1.354.988 2.214.988zm5.479 4.021a8.971 8.971 0 00-.105-.884 7.43 7.43 0 00-.202-.89 4.567 4.567 0 00-.34-.83 3.115 3.115 0 00-.512-.718 2.242 2.242 0 00-.735-.497 2.381 2.381 0 00-.94-.183c-.132 0-.26.058-.508.232-.152.107-.33.231-.53.368-.17.117-.401.226-.686.325-.278.097-.56.147-.839.147-.279 0-.56-.05-.839-.146a2.928 2.928 0 01-.685-.326c-.198-.136-.376-.26-.531-.368-.248-.174-.376-.233-.509-.233-.338 0-.654.062-.939.184a2.24 2.24 0 00-.735.497c-.193.2-.365.441-.512.719a4.58 4.58 0 00-.34.83 8.91 8.91 0 00-.307 1.774 13.06 13.06 0 00-.026.826c0 .731.216 1.323.642 1.759.42.43.976.649 1.652.649h6.26c.675 0 1.23-.218 1.651-.649.426-.436.641-1.028.641-1.759 0-.282-.009-.56-.026-.827z"/></g><defs><clipPath id="clip0_221_1372"><path fill="#fff" d="M0 0h13v14H0z"/></clipPath></defs></svg>