<svg width="26" height="25" fill="none" xmlns="http://www.w3.org/2000/svg"><g clip-path="url(#clip0_221_410)"><path d="M13.647 20.313c3.617 0 2.327-2.29 2.606-2.948-.004-.492-.008-.965.009-1.252.229.064.77.338 1.886 1.424 1.724 1.739 2.165 2.776 3.558 2.776h2.563c.813 0 1.235-.337 1.447-.62.204-.272.404-.751.185-1.497-.572-1.796-3.907-4.897-4.114-5.224.031-.06.081-.14.107-.182h-.002c.658-.87 3.17-4.635 3.54-6.141a.02.02 0 00.003-.008c.2-.688.016-1.134-.173-1.386-.286-.377-.74-.567-1.353-.567h-2.564c-.858 0-1.51.432-1.838 1.22-.552 1.401-2.1 4.283-3.26 5.302a66.863 66.863 0 01.007-3.367c.038-1.6.159-3.155-1.5-3.155h-4.03c-1.04 0-2.034 1.135-.957 2.483.942 1.181.338 1.84.542 5.116-.792-.849-2.2-3.141-3.196-6.071-.28-.793-.702-1.527-1.893-1.527H2.657c-1.04 0-1.66.566-1.66 1.515 0 2.131 4.717 14.108 12.65 14.108zM5.22 6.25c.226 0 .249 0 .417.476 1.02 3.003 3.307 7.447 4.978 7.447 1.255 0 1.255-1.287 1.255-1.77l-.001-3.857c-.069-1.276-.533-1.912-.838-2.297l3.654.004c.002.018-.021 4.266.01 5.295 0 1.461 1.16 2.299 2.972.466C19.578 9.857 20.9 6.632 20.953 6.5c.079-.187.146-.251.392-.251h2.574l-.002.01c-.234 1.093-2.548 4.579-3.322 5.66l-.035.053c-.341.556-.618 1.17.047 2.035.061.073.218.244.447.482.713.735 3.157 3.25 3.373 4.25-.143.023-.3.006-2.721.011-.516 0-.92-.77-2.458-2.323-1.383-1.346-2.281-1.896-3.099-1.896-1.587 0-1.472 1.289-1.457 2.847.005 1.69-.005 1.155.006 1.262-.093.036-.358.109-1.05.109-6.61 0-10.914-10.49-11.08-12.496.057-.005.846-.002 2.652-.003z" fill="#fff"/></g><defs><clipPath id="clip0_221_410"><path fill="#fff" transform="translate(.996)" d="M0 0h25v25H0z"/></clipPath></defs></svg>